<svg xmlns="http://www.w3.org/2000/svg" width="1200" height="630" viewBox="0 0 1200 630">
<g>
<path d="M 713.19 348.84 C688.27,363.23 667.69,375.00 667.44,375.00 C667.20,375.00 667.00,346.46 667.00,311.58 L 667.00 248.16 L 681.75 239.68 C701.07,228.57 723.67,215.53 743.50,204.04 C766.50,190.72 776.69,185.00 777.39,185.00 C777.72,185.00 778.00,213.46 778.00,248.25 L 777.99 311.50 L 768.25 317.09 C762.89,320.17 738.11,334.46 713.19,348.84 ZM 654.97 311.25 C654.99,346.29 654.89,374.93 654.75,374.93 C654.61,374.88 650.67,372.59 646.00,369.82 C641.33,367.06 634.12,362.90 630.00,360.58 C622.85,356.55 606.87,347.33 564.26,322.65 L 545.03 311.50 L 545.01 248.25 C545.01,213.46 545.30,185.00 545.66,185.00 C546.03,185.00 570.76,199.06 600.63,216.25 L 654.94 247.50 ZM 532.96 240.25 C532.98,275.31 532.89,303.98 532.75,303.98 C532.50,303.97 501.24,285.93 483.50,275.56 C478.55,272.67 462.91,263.65 448.75,255.51 L 423.00 240.71 L 423.00 177.35 C423.00,142.51 423.26,114.00 423.59,114.00 C424.14,114.00 442.87,124.74 492.50,153.50 C504.05,160.20 517.87,168.11 523.21,171.09 L 532.93 176.50 ZM 653.26 388.20 C654.91,389.42 655.00,393.35 654.76,452.77 L 654.50 516.04 L 614.50 492.93 C592.50,480.21 567.86,465.96 559.75,461.26 L 545.00 452.72 L 545.00 389.36 C545.00,354.51 545.23,326.00 545.50,326.00 C545.78,326.00 561.41,334.92 580.25,345.82 C599.09,356.72 622.83,370.43 633.00,376.27 C643.17,382.12 652.29,387.49 653.26,388.20 Z" fill="rgb(123,66,186)"/>
<path d="M 0.00 0.00 L 1200.00 0.00 L 1200.00 630.00 L 0.00 630.00 ZM 647.63 520.30 C649.09,521.76 655.16,520.61 656.56,518.61 C658.72,515.53 658.71,391.63 656.55,386.47 C655.74,384.54 654.38,383.00 653.49,383.00 C652.60,383.00 650.99,382.53 649.92,381.96 C648.33,381.10 648.17,380.55 649.06,378.88 C649.69,377.71 650.76,377.08 651.59,377.40 C654.50,378.51 657.79,375.94 658.29,372.13 C658.64,369.46 659.07,295.26 659.00,248.27 C659.00,247.32 659.57,247.30 661.51,248.19 L 664.01 249.33 L 663.94 312.31 C663.88,363.40 664.11,375.47 665.18,376.19 C666.80,377.29 678.01,376.56 678.88,375.30 C682.56,369.91 684.88,368.48 690.42,368.15 C695.89,367.82 700.09,365.20 699.42,362.52 C699.00,360.85 699.58,360.19 702.35,359.19 C705.96,357.88 708.08,357.93 709.10,359.32 C709.98,360.52 713.01,357.18 712.42,355.66 C711.86,354.20 714.98,352.41 719.75,351.48 C721.54,351.13 723.65,349.92 724.44,348.79 C725.23,347.66 726.92,346.63 728.19,346.49 C729.46,346.36 730.95,346.20 731.50,346.13 C732.05,346.06 733.57,343.98 734.88,341.52 C736.19,339.06 737.61,337.26 738.04,337.53 C738.48,337.79 739.00,337.51 739.20,336.90 C739.43,336.22 742.01,335.81 745.72,335.87 C751.64,335.95 751.84,335.87 751.43,333.60 C750.75,329.85 755.12,327.80 763.37,328.00 C767.07,328.09 767.21,327.98 766.57,325.44 C765.83,322.46 768.01,320.09 771.55,320.03 C772.68,320.01 775.13,318.42 777.00,316.50 C778.87,314.58 781.18,313.00 782.14,313.00 C783.10,313.00 784.18,312.52 784.54,311.94 C785.50,310.39 784.16,306.00 782.73,306.00 C781.19,306.00 781.49,193.82 783.04,190.93 C784.41,188.37 784.26,187.60 781.88,184.90 C780.72,183.58 779.10,181.50 778.28,180.27 C777.09,178.49 776.41,178.24 774.90,179.05 C773.85,179.61 773.00,180.74 773.00,181.55 C773.00,183.02 772.61,183.08 763.89,182.99 C760.54,182.96 760.17,183.27 758.60,187.37 C756.73,192.27 751.97,195.37 749.74,193.14 C748.03,191.43 746.62,191.74 743.41,194.50 C741.81,195.87 740.19,197.00 739.82,197.00 C738.31,197.00 736.00,200.28 736.00,202.42 C736.00,205.77 732.65,208.38 729.24,207.70 C725.34,206.92 718.00,210.28 718.00,212.84 C718.00,215.42 713.82,216.43 709.31,214.94 C704.96,213.50 702.84,214.91 704.75,217.97 C705.80,219.65 705.47,220.29 702.25,222.95 C698.75,225.83 696.82,226.47 692.76,226.05 C691.75,225.95 690.52,226.96 689.85,228.44 C688.96,230.37 687.92,231.01 685.59,231.02 C682.21,231.05 678.86,233.28 677.13,236.66 C676.38,238.14 674.68,239.04 671.76,239.52 C669.42,239.90 666.10,241.06 664.38,242.11 C661.02,244.15 658.00,244.59 658.00,243.04 C658.00,242.51 656.09,241.56 653.75,240.94 C651.41,240.31 649.05,239.51 648.50,239.16 C647.52,238.54 646.96,238.37 645.03,238.12 C644.50,238.06 644.32,237.32 644.64,236.50 C644.95,235.68 644.74,235.00 644.15,235.00 C643.57,235.00 641.97,233.88 640.59,232.50 C639.22,231.12 636.97,230.00 635.60,230.00 C632.56,230.00 631.41,228.41 633.04,226.46 C633.13,226.35 633.21,226.25 633.29,226.15 C633.68,225.70 633.94,225.39 633.87,225.19 C633.74,224.74 632.14,224.71 627.23,224.49 C620.96,224.21 618.00,222.91 618.00,220.45 C618.00,217.88 612.94,215.02 608.70,215.18 C605.53,215.31 604.32,214.86 603.20,213.17 C602.40,211.98 601.25,211.00 600.63,211.00 C600.01,211.00 598.19,209.87 596.59,208.50 C595.00,207.12 593.07,206.00 592.31,206.00 C591.56,206.00 590.69,205.35 590.39,204.56 C590.08,203.77 589.21,203.36 588.46,203.65 C587.50,204.02 587.20,203.56 587.47,202.16 C587.78,200.57 587.17,199.97 584.68,199.39 C582.93,198.98 580.65,198.62 579.61,198.58 C578.58,198.53 577.23,197.60 576.61,196.50 C574.96,193.53 573.32,192.81 567.85,192.62 C564.72,192.52 562.56,191.92 561.97,190.98 C561.45,190.17 561.01,189.95 560.98,190.50 C560.95,191.05 560.24,189.94 559.42,188.03 C557.60,183.84 556.46,183.04 552.32,183.02 C550.57,183.01 548.37,182.23 547.43,181.29 C545.16,179.02 543.02,178.79 542.27,180.74 C541.78,182.01 541.45,181.85 540.60,179.91 C539.68,177.81 539.50,178.24 539.22,183.35 C538.99,187.51 539.36,189.91 540.53,191.68 C542.00,193.93 542.14,199.97 541.94,252.34 C541.74,304.26 541.89,310.90 543.35,314.20 C544.29,316.32 544.59,318.14 544.05,318.47 C543.96,318.52 543.87,318.57 543.79,318.62 C542.73,319.29 542.76,321.68 542.35,386.92 C542.07,430.26 542.28,451.68 542.97,452.37 C543.54,452.94 544.00,454.12 544.00,455.00 C544.00,458.26 546.45,462.08 548.25,461.63 C549.21,461.39 550.00,461.60 550.00,462.09 C550.00,462.59 550.34,462.91 550.75,462.81 C551.16,462.70 552.93,462.96 554.68,463.37 C558.25,464.22 560.25,466.18 560.73,469.30 C561.15,472.04 562.78,473.06 566.50,472.92 C573.36,472.65 574.07,472.92 575.53,476.43 C577.13,480.25 578.72,480.99 584.36,480.53 C588.83,480.16 592.16,482.66 591.34,485.79 C590.58,488.73 602.14,496.28 605.46,495.01 C607.22,494.35 607.97,494.48 608.38,495.56 C608.69,496.35 609.51,497.01 610.22,497.02 C610.92,497.03 613.27,498.83 615.43,501.02 C617.58,503.21 620.06,505.06 620.93,505.13 C621.79,505.20 624.08,505.31 626.00,505.38 C628.78,505.47 629.56,505.95 629.81,507.66 C630.08,509.55 631.68,510.51 635.50,511.05 C636.05,511.13 637.32,511.63 638.31,512.17 C639.31,512.70 641.05,513.32 642.17,513.53 C644.98,514.07 647.00,515.92 647.00,517.96 C647.00,518.90 647.28,519.95 647.63,520.30 ZM 526.82 304.96 C530.64,307.19 534.24,305.45 536.63,300.24 C537.57,298.18 538.46,296.24 538.62,295.93 C538.77,295.61 538.26,294.13 537.48,292.63 C536.33,290.40 536.06,281.11 536.02,240.96 C535.98,204.65 535.65,191.33 534.74,189.34 C533.78,187.22 533.78,186.57 534.76,186.25 C536.40,185.70 536.39,176.82 534.75,175.05 C533.73,173.96 533.78,173.86 535.00,174.51 C535.89,174.99 536.17,174.95 535.68,174.41 C535.24,173.91 532.31,172.13 529.18,170.45 C525.24,168.33 523.59,166.88 523.79,165.70 C523.98,164.63 523.04,163.54 521.29,162.77 C519.76,162.09 518.17,161.03 517.78,160.40 C517.38,159.78 515.94,159.48 514.58,159.74 C511.36,160.36 506.00,157.96 506.00,155.91 C506.00,154.96 504.25,153.58 501.75,152.55 C495.26,149.87 494.50,149.39 494.47,147.89 C494.43,145.34 493.07,144.26 490.52,144.75 C489.14,145.02 488.00,144.79 488.00,144.26 C488.00,143.72 486.86,143.50 485.46,143.76 C482.60,144.31 478.63,141.41 479.42,139.34 C480.38,136.85 477.03,135.00 471.55,135.00 C465.99,135.00 463.28,133.33 464.34,130.56 C465.03,128.75 462.10,127.69 456.00,127.55 C450.19,127.42 448.34,126.20 448.43,122.59 C448.49,120.07 447.68,119.17 442.48,115.99 C438.26,113.41 435.88,112.52 434.48,113.02 C433.39,113.41 431.41,113.32 430.08,112.83 C426.47,111.47 419.22,111.57 417.51,113.00 C415.76,114.44 415.50,118.57 417.09,119.55 C417.69,119.92 417.95,121.07 417.68,122.11 C417.16,124.11 418.98,128.98 420.25,128.99 C420.66,129.00 421.00,153.50 421.00,183.45 L 421.00 237.90 L 418.59 240.49 C417.27,241.92 416.27,243.63 416.37,244.29 C416.69,246.40 418.10,248.05 419.07,247.46 C419.58,247.14 420.00,247.38 420.00,247.98 C420.00,248.59 420.56,248.99 421.25,248.88 C421.94,248.76 424.30,249.06 426.50,249.54 C428.70,250.01 430.82,250.32 431.21,250.21 C431.61,250.11 431.70,250.63 431.41,251.36 C430.71,253.20 435.69,256.29 438.34,255.67 C439.53,255.39 442.04,255.69 443.92,256.33 C446.68,257.28 447.55,258.26 448.46,261.50 C449.58,265.46 449.63,265.50 454.31,265.40 C458.39,265.32 458.96,265.55 458.48,267.07 C457.96,268.71 459.14,270.12 461.50,270.68 C468.28,272.27 471.79,273.77 473.78,275.92 C475.09,277.34 475.87,277.94 475.52,277.25 C474.58,275.42 477.51,275.71 479.09,277.60 C479.82,278.49 481.50,279.62 482.82,280.12 C484.82,280.88 485.01,281.28 483.97,282.54 C483.28,283.37 482.89,284.15 483.11,284.27 C487.24,286.65 491.10,287.88 493.50,287.58 C497.15,287.12 502.00,289.77 502.00,292.22 C502.00,293.20 502.45,294.00 503.00,294.00 C503.55,294.00 503.89,294.51 503.75,295.14 C503.60,295.82 504.95,296.34 507.00,296.42 C511.34,296.58 513.00,297.57 513.00,300.00 C513.00,302.51 514.11,303.06 520.09,303.56 C522.87,303.79 525.90,304.42 526.82,304.96 ZM 640.00 374.00 C640.00,375.10 639.89,375.94 639.75,375.86 C639.61,375.79 638.49,375.53 637.25,375.29 C636.01,375.06 634.55,374.02 634.00,373.00 C632.95,371.03 633.61,368.00 635.11,368.00 C636.75,368.00 640.00,371.98 640.00,374.00 ZM 559.79 325.84 C559.63,326.65 558.74,327.42 557.82,327.56 C556.77,327.71 556.33,327.30 556.65,326.47 C556.95,325.68 555.90,324.48 554.08,323.54 C550.44,321.66 550.14,320.95 553.25,321.54 C556.98,322.24 560.09,324.29 559.79,325.84 ZM 583.95 339.91 C584.66,341.23 584.36,341.62 582.47,341.77 C579.77,342.00 578.73,340.87 579.58,338.65 C580.27,336.85 582.68,337.54 583.95,339.91 ZM 757.47 332.96 C758.76,335.03 760.98,334.05 760.77,331.50 C760.66,330.12 760.27,329.00 759.90,329.00 C758.63,329.00 756.83,331.92 757.47,332.96 ZM 596.03 349.54 C597.73,351.59 596.78,352.29 594.53,350.64 C593.41,349.82 593.10,349.06 593.74,348.66 C594.31,348.31 595.34,348.70 596.03,349.54 ZM 615.50 511.00 C615.84,511.55 616.54,512.00 617.06,512.00 C617.58,512.00 618.00,511.55 618.00,511.00 C618.00,510.45 617.30,510.00 616.44,510.00 C615.58,510.00 615.16,510.45 615.50,511.00 ZM 621.00 214.00 C621.00,214.55 621.45,215.00 622.00,215.00 C622.55,215.00 623.00,214.55 623.00,214.00 C623.00,213.45 622.55,213.00 622.00,213.00 C621.45,213.00 621.00,213.45 621.00,214.00 Z" fill="rgb(254,254,254)"/>
<path d="M 647.63 520.30 C647.28,519.95 647.00,518.90 647.00,517.96 C647.00,515.92 644.98,514.07 642.17,513.53 C641.05,513.32 639.31,512.70 638.31,512.17 C637.32,511.63 636.05,511.13 635.50,511.05 C631.68,510.51 630.08,509.55 629.81,507.66 C629.56,505.95 628.78,505.47 626.00,505.38 C624.08,505.31 621.79,505.20 620.93,505.13 C620.06,505.06 617.58,503.21 615.43,501.02 C613.27,498.83 610.92,497.03 610.22,497.02 C609.51,497.01 608.69,496.35 608.38,495.56 C607.97,494.48 607.22,494.35 605.46,495.01 C602.14,496.28 590.58,488.73 591.34,485.79 C592.16,482.66 588.83,480.16 584.36,480.53 C578.72,480.99 577.13,480.25 575.53,476.43 C574.07,472.92 573.36,472.65 566.50,472.92 C562.78,473.06 561.15,472.04 560.73,469.30 C560.25,466.18 558.25,464.22 554.68,463.37 C552.93,462.96 551.16,462.70 550.75,462.81 C550.34,462.91 550.00,462.59 550.00,462.09 C550.00,461.60 549.21,461.39 548.25,461.63 C546.45,462.08 544.00,458.26 544.00,455.00 C544.00,454.12 543.54,452.94 542.97,452.37 C542.28,451.68 542.07,430.26 542.35,386.92 C542.79,316.68 542.72,319.29 544.05,318.47 C544.59,318.14 544.29,316.32 543.35,314.20 C541.89,310.90 541.74,304.26 541.94,252.34 C542.14,199.97 542.00,193.93 540.53,191.68 C539.36,189.91 538.99,187.51 539.22,183.35 C539.50,178.24 539.68,177.81 540.60,179.91 C541.45,181.85 541.78,182.01 542.27,180.74 C543.02,178.79 545.16,179.02 547.43,181.29 C548.37,182.23 550.57,183.01 552.32,183.02 C556.46,183.04 557.60,183.84 559.42,188.03 C560.24,189.94 560.95,191.05 560.98,190.50 C561.01,189.95 561.45,190.17 561.97,190.98 C562.56,191.92 564.72,192.52 567.85,192.62 C573.32,192.81 574.96,193.53 576.61,196.50 C577.23,197.60 578.58,198.53 579.61,198.58 C580.65,198.62 582.93,198.98 584.68,199.39 C587.17,199.97 587.78,200.57 587.47,202.16 C587.20,203.56 587.50,204.02 588.46,203.65 C589.21,203.36 590.08,203.77 590.39,204.56 C590.69,205.35 591.56,206.00 592.31,206.00 C593.07,206.00 595.00,207.12 596.59,208.50 C598.19,209.87 600.01,211.00 600.63,211.00 C601.25,211.00 602.40,211.98 603.20,213.17 C604.32,214.86 605.53,215.31 608.70,215.18 C612.94,215.02 618.00,217.88 618.00,220.45 C618.00,222.91 620.96,224.21 627.23,224.49 C634.90,224.84 634.49,224.70 633.04,226.46 C631.41,228.41 632.56,230.00 635.60,230.00 C636.97,230.00 639.22,231.12 640.59,232.50 C641.97,233.88 643.57,235.00 644.15,235.00 C644.74,235.00 644.95,235.68 644.64,236.50 C644.32,237.32 644.50,238.06 645.03,238.12 C646.96,238.37 647.52,238.54 648.50,239.16 C649.05,239.51 651.41,240.31 653.75,240.94 C656.09,241.56 658.00,242.51 658.00,243.04 C658.00,244.59 661.02,244.15 664.38,242.11 C666.10,241.06 669.42,239.90 671.76,239.52 C674.68,239.04 676.38,238.14 677.13,236.66 C678.86,233.28 682.21,231.05 685.59,231.02 C687.92,231.01 688.96,230.37 689.85,228.44 C690.52,226.96 691.75,225.95 692.76,226.05 C696.82,226.47 698.75,225.83 702.25,222.95 C705.47,220.29 705.80,219.65 704.75,217.97 C702.84,214.91 704.96,213.50 709.31,214.94 C713.82,216.43 718.00,215.42 718.00,212.84 C718.00,210.28 725.34,206.92 729.24,207.70 C732.65,208.38 736.00,205.77 736.00,202.42 C736.00,200.28 738.31,197.00 739.82,197.00 C740.19,197.00 741.81,195.87 743.41,194.50 C746.62,191.74 748.03,191.43 749.74,193.14 C751.97,195.37 756.73,192.27 758.60,187.37 C760.17,183.27 760.54,182.96 763.89,182.99 C772.61,183.08 773.00,183.02 773.00,181.55 C773.00,180.74 773.85,179.61 774.90,179.05 C776.41,178.24 777.09,178.49 778.28,180.27 C779.10,181.50 780.72,183.58 781.88,184.90 C784.26,187.60 784.41,188.37 783.04,190.93 C781.49,193.82 781.19,306.00 782.73,306.00 C784.16,306.00 785.50,310.39 784.54,311.94 C784.18,312.52 783.10,313.00 782.14,313.00 C781.18,313.00 778.87,314.58 777.00,316.50 C775.13,318.42 772.68,320.01 771.55,320.03 C768.01,320.09 765.83,322.46 766.57,325.44 C767.21,327.98 767.07,328.09 763.37,328.00 C755.12,327.80 750.75,329.85 751.43,333.60 C751.84,335.87 751.64,335.95 745.72,335.87 C742.01,335.81 739.43,336.22 739.20,336.90 C739.00,337.51 738.48,337.79 738.04,337.53 C737.61,337.26 736.19,339.06 734.88,341.52 C733.57,343.98 732.05,346.06 731.50,346.13 C730.95,346.20 729.46,346.36 728.19,346.49 C726.92,346.63 725.23,347.66 724.44,348.79 C723.65,349.92 721.54,351.13 719.75,351.48 C714.98,352.41 711.86,354.20 712.42,355.66 C713.01,357.18 709.98,360.52 709.10,359.32 C708.08,357.93 705.96,357.88 702.35,359.19 C699.58,360.19 699.00,360.85 699.42,362.52 C700.09,365.20 695.89,367.82 690.42,368.15 C684.88,368.48 682.56,369.91 678.88,375.30 C678.01,376.56 666.80,377.29 665.18,376.19 C664.11,375.47 663.88,363.40 663.94,312.31 L 664.01 249.33 L 661.51 248.19 C659.57,247.30 659.00,247.32 659.00,248.27 C659.07,295.26 658.64,369.46 658.29,372.13 C657.79,375.94 654.50,378.51 651.59,377.40 C650.76,377.08 649.69,377.71 649.06,378.88 C648.17,380.55 648.33,381.10 649.92,381.96 C650.99,382.53 652.60,383.00 653.49,383.00 C654.38,383.00 655.74,384.54 656.55,386.47 C658.71,391.63 658.72,515.53 656.56,518.61 C655.16,520.61 649.09,521.76 647.63,520.30 ZM 653.26 388.20 C652.29,387.49 643.17,382.12 633.00,376.27 C622.83,370.43 599.09,356.72 580.25,345.82 C561.41,334.92 545.78,326.00 545.50,326.00 C545.23,326.00 545.00,354.51 545.00,389.36 L 545.00 452.72 L 559.75 461.26 C567.86,465.96 592.50,480.21 614.50,492.93 L 654.50 516.04 L 654.76 452.77 C655.00,393.35 654.91,389.42 653.26,388.20 ZM 640.00 374.00 C640.00,371.98 636.75,368.00 635.11,368.00 C633.61,368.00 632.95,371.03 634.00,373.00 C634.55,374.02 636.01,375.06 637.25,375.29 C638.49,375.53 639.61,375.79 639.75,375.86 C639.89,375.94 640.00,375.10 640.00,374.00 ZM 654.97 311.25 L 654.94 247.50 L 600.63 216.25 C570.76,199.06 546.03,185.00 545.66,185.00 C545.30,185.00 545.01,213.46 545.01,248.25 L 545.03 311.50 L 564.26 322.65 C606.87,347.33 622.85,356.55 630.00,360.58 C634.12,362.90 641.33,367.06 646.00,369.82 C650.67,372.59 654.61,374.88 654.75,374.93 C654.89,374.97 654.99,346.31 654.97,311.25 ZM 713.19 348.84 C738.11,334.46 762.89,320.17 768.25,317.09 L 777.99 311.50 L 778.00 248.25 C778.00,213.46 777.72,185.00 777.39,185.00 C776.69,185.00 766.50,190.72 743.50,204.04 C723.67,215.53 701.07,228.57 681.75,239.68 L 667.00 248.16 L 667.00 311.58 C667.00,346.46 667.20,375.00 667.44,375.00 C667.69,375.00 688.27,363.23 713.19,348.84 ZM 596.03 349.54 C595.34,348.70 594.31,348.31 593.74,348.66 C593.10,349.06 593.41,349.82 594.53,350.64 C596.78,352.29 597.73,351.59 596.03,349.54 ZM 583.95 339.91 C582.68,337.54 580.27,336.85 579.58,338.65 C578.73,340.87 579.77,342.00 582.47,341.77 C584.36,341.62 584.66,341.23 583.95,339.91 ZM 559.79 325.84 C560.09,324.29 556.98,322.24 553.25,321.54 C550.14,320.95 550.44,321.66 554.08,323.54 C555.90,324.48 556.95,325.68 556.65,326.47 C556.33,327.30 556.77,327.71 557.82,327.56 C558.74,327.42 559.63,326.65 559.79,325.84 ZM 615.50 511.00 C615.16,510.45 615.58,510.00 616.44,510.00 C617.30,510.00 618.00,510.45 618.00,511.00 C618.00,511.55 617.58,512.00 617.06,512.00 C616.54,512.00 615.84,511.55 615.50,511.00 ZM 757.47 332.96 C756.83,331.92 758.63,329.00 759.90,329.00 C760.27,329.00 760.66,330.12 760.77,331.50 C760.98,334.05 758.76,335.03 757.47,332.96 ZM 526.82 304.96 C525.90,304.42 522.87,303.79 520.09,303.56 C514.11,303.06 513.00,302.51 513.00,300.00 C513.00,297.57 511.34,296.58 507.00,296.42 C504.95,296.34 503.60,295.82 503.75,295.14 C503.89,294.51 503.55,294.00 503.00,294.00 C502.45,294.00 502.00,293.20 502.00,292.22 C502.00,289.77 497.15,287.12 493.50,287.58 C491.10,287.88 487.24,286.65 483.11,284.27 C482.89,284.15 483.28,283.37 483.97,282.54 C485.01,281.28 484.82,280.88 482.82,280.12 C481.50,279.62 479.82,278.49 479.09,277.60 C477.51,275.71 474.58,275.42 475.52,277.25 C475.87,277.94 475.09,277.34 473.78,275.92 C471.79,273.77 468.28,272.27 461.50,270.68 C459.14,270.12 457.96,268.71 458.48,267.07 C458.96,265.55 458.39,265.32 454.31,265.40 C449.63,265.50 449.58,265.46 448.46,261.50 C447.55,258.26 446.68,257.28 443.92,256.33 C442.04,255.69 439.53,255.39 438.34,255.67 C435.69,256.29 430.71,253.20 431.41,251.36 C431.70,250.63 431.61,250.11 431.21,250.21 C430.82,250.32 428.70,250.01 426.50,249.54 C424.30,249.06 421.94,248.76 421.25,248.88 C420.56,248.99 420.00,248.59 420.00,247.98 C420.00,247.38 419.58,247.14 419.07,247.46 C418.10,248.05 416.69,246.40 416.37,244.29 C416.27,243.63 417.27,241.92 418.59,240.49 L 421.00 237.90 L 421.00 183.45 C421.00,153.50 420.66,129.00 420.25,128.99 C418.98,128.98 417.16,124.11 417.68,122.11 C417.95,121.07 417.69,119.92 417.09,119.55 C415.50,118.57 415.76,114.44 417.51,113.00 C419.22,111.57 426.47,111.47 430.08,112.83 C431.41,113.32 433.39,113.41 434.48,113.02 C435.88,112.52 438.26,113.41 442.48,115.99 C447.68,119.17 448.49,120.07 448.43,122.59 C448.34,126.20 450.19,127.42 456.00,127.55 C462.10,127.69 465.03,128.75 464.34,130.56 C463.28,133.33 465.99,135.00 471.55,135.00 C477.03,135.00 480.38,136.85 479.42,139.34 C478.63,141.41 482.60,144.31 485.46,143.76 C486.86,143.50 488.00,143.72 488.00,144.26 C488.00,144.79 489.14,145.02 490.52,144.75 C493.07,144.26 494.43,145.34 494.47,147.89 C494.50,149.39 495.26,149.87 501.75,152.55 C504.25,153.58 506.00,154.96 506.00,155.91 C506.00,157.96 511.36,160.36 514.58,159.74 C515.94,159.48 517.38,159.78 517.78,160.40 C518.17,161.03 519.76,162.09 521.29,162.77 C523.04,163.54 523.98,164.63 523.79,165.70 C523.59,166.88 525.24,168.33 529.18,170.45 C532.31,172.13 535.24,173.91 535.68,174.41 C536.17,174.95 535.89,174.99 535.00,174.51 C533.78,173.86 533.73,173.96 534.75,175.05 C536.39,176.82 536.40,185.70 534.76,186.25 C533.78,186.57 533.78,187.22 534.74,189.34 C535.65,191.33 535.98,204.65 536.02,240.96 C536.06,281.11 536.33,290.40 537.48,292.63 C538.26,294.13 538.77,295.61 538.62,295.93 C538.46,296.24 537.57,298.18 536.63,300.24 C534.24,305.45 530.64,307.19 526.82,304.96 ZM 532.96 240.25 L 532.93 176.50 L 523.21 171.09 C517.87,168.11 504.05,160.20 492.50,153.50 C442.87,124.74 424.14,114.00 423.59,114.00 C423.26,114.00 423.00,142.51 423.00,177.35 L 423.00 240.71 L 448.75 255.51 C462.91,263.65 478.55,272.67 483.50,275.56 C501.24,285.93 532.50,303.97 532.75,303.98 C532.89,303.99 532.98,275.31 532.96,240.25 ZM 621.00 214.00 C621.00,213.45 621.45,213.00 622.00,213.00 C622.55,213.00 623.00,213.45 623.00,214.00 C623.00,214.55 622.55,215.00 622.00,215.00 C621.45,215.00 621.00,214.55 621.00,214.00 Z" fill="rgb(253,250,251)"/>
</g>
</svg>